<svg xmlns="http://www.w3.org/2000/svg" width="512" height="512" fill="none"><g fill="#000" clip-path="url(#a)"><path d="M399.725 41.414h-33.433c-9.043 0-17.538 4.659-22.745 12.332L72.245 465.083c-2.192 3.563.274 8.221 4.384 8.221h33.434c9.043 0 17.539-4.658 22.745-12.331L404.11 49.636c2.466-3.29-.274-8.222-4.385-8.222Z"/><path fill-rule="evenodd" d="m118.421 24 10.966 37.313c9.711 33.835 36.341 60.396 70.175 70.199l37.281 10.752-37.281 10.751c-33.834 9.802-60.464 36.364-70.175 70.199l-10.966 37.629-10.964-37.313c-9.712-33.835-36.341-60.397-70.176-70.199L0 142.58l37.28-10.752c33.836-9.802 60.465-36.364 70.177-70.199L118.421 24Z" clip-rule="evenodd"/><path d="M392.155 321.35c3.025 11.551 34.981 41.999 45.604 45.884-10.623 2.666-42.068 34.112-45.604 45.883-3.024-11.551-33.151-43.263-45.605-45.883 12.454-5.194 42.263-34.333 45.605-45.884Zm-.318-74.44-11.126 38.183c-9.855 34.332-36.875 61.285-71.208 71.232l-37.829 10.909 37.829 10.909c34.333 9.947 61.353 36.899 71.208 71.232l11.126 37.861 11.126-38.183c9.855-34.331 36.876-61.284 71.208-71.23l37.83-10.91-37.83-10.91c-34.332-9.946-61.353-36.899-71.208-71.231l-11.126-37.862Z"/></g><defs><clipPath id="a"><path fill="#fff" d="M0 0h512v512H0z"/></clipPath></defs></svg>